<!DOCTYPE svg PUBLIC "-//W3C//DTD SVG 20010904//EN" "http://www.w3.org/TR/2001/REC-SVG-20010904/DTD/svg10.dtd"[]><svg version="1.0" xmlns="http://www.w3.org/2000/svg" width="14" height="14" viewBox="0 0 123.000000 123.000000" preserveAspectRatio="xMidYMid meet"><g transform="translate(0.000000,123.000000) scale(0.100000,-0.100000)" fill="#000000" stroke="none"><path d="M351 1035 c-91 -28 -130 -96 -131 -222 0 -97 -4 -109 -41 -129 -26 -13 -29 -20 -29 -65 0 -43 3 -51 24 -59 37 -14 46 -40 46 -130 0 -121 32 -183 115 -221 34 -16 66 -19 220 -19 l180 0 71 -37 c92 -48 104 -44 92 37 l-10 61 51 54 c78 82 93 126 99 278 3 102 1 142 -13 193 -33 124 -137 227 -260 259 -77 20 -350 20 -414 0z m436 -126 c99 -47 143 -138 143 -294 0 -123 -19 -185 -75 -240 -65 -66 -115 -77 -321 -73 -205 4 -204 3 -204 135 0 94 -17 144 -56 170 l-24 15 25 20 c41 32 55 70 55 152 0 84 13 124 44 131 31 7 232 12 306 8 36 -3 84 -13 107 -24z" /><path d="M451 846 c-9 -11 -11 -60 -9 -170 3 -138 5 -158 24 -182 41 -56 70 -69 148 -69 65 0 77 3 110 29 92 69 86 217 -9 276 -30 19 -47 22 -105 18 l-70 -4 0 52 c0 38 -4 53 -16 58 -27 10 -61 7 -73 -8z m205 -194 c16 -11 34 -48 34 -72 0 -29 -44 -70 -75 -70 -61 0 -98 87 -55 130 20 20 74 27 96 12z" /></g></svg>