<?xml version="1.0" standalone="no"?>
<!DOCTYPE svg PUBLIC "-//W3C//DTD SVG 20010904//EN"
 "http://www.w3.org/TR/2001/REC-SVG-20010904/DTD/svg10.dtd">
<svg version="1.0" xmlns="http://www.w3.org/2000/svg"
 width="90.000000pt" height="90.000000pt" viewBox="0 0 90.000000 90.000000"
 preserveAspectRatio="xMidYMid meet">

<g transform="translate(0.000000,90.000000) scale(0.100000,-0.100000)"
fill="#000000" stroke="none">
<path d="M263 751 c-55 -25 -73 -62 -73 -146 0 -58 -3 -69 -25 -89 -33 -30
-33 -72 0 -102 22 -20 25 -31 25 -89 0 -77 17 -118 63 -145 28 -17 51 -20 166
-20 131 0 136 -1 188 -30 30 -17 58 -28 62 -25 5 2 6 25 3 50 -4 41 -2 50 26
78 55 57 72 109 72 227 0 119 -17 169 -73 228 -62 66 -96 76 -252 80 -122 2
-145 0 -182 -17z m322 -80 c51 -23 92 -71 101 -116 3 -19 4 -74 3 -122 -5
-102 -24 -140 -89 -173 -33 -17 -59 -20 -173 -20 -90 0 -137 4 -145 12 -7 7
-12 39 -12 72 0 63 -19 114 -47 130 -12 7 -10 13 13 37 23 24 28 40 33 104 5
51 12 79 21 85 8 6 69 10 135 10 95 0 128 -4 160 -19z"/>
<path d="M347 624 c-11 -11 -8 -174 3 -215 13 -48 50 -79 99 -86 83 -11 141
37 141 118 0 40 -5 55 -29 81 -26 30 -35 33 -85 33 l-55 0 -3 35 c-3 31 -7 35
-33 38 -17 2 -34 0 -38 -4z m161 -146 c7 -7 12 -24 12 -38 0 -14 -5 -31 -12
-38 -7 -7 -24 -12 -38 -12 -33 0 -50 17 -50 50 0 14 5 31 12 38 7 7 24 12 38
12 14 0 31 -5 38 -12z"/>
</g>
</svg>
